<svg width="308" height="479" viewBox="0 0 308 479" fill="none" xmlns="http://www.w3.org/2000/svg">
<path d="M217.193 10.0027C229.649 46.7203 255.79 65.6079 288.587 81.3969" stroke="#1A1B41" stroke-width="35" stroke-linecap="round"/>
<path d="M24.8409 82.0027H289.841" stroke="#1A1B41" stroke-width="35" stroke-linecap="round"/>
<path d="M5.48363e-06 478.094V114.457H84.0909V142.298H31.8182V450.253H84.0909V478.094H5.48363e-06ZM307.99 114.457V478.094H223.899V450.253H276.172V142.298H223.899V114.457H307.99Z" fill="#1A1B41" stroke="#1A1B41" stroke-width="12" paint-order="stroke fill"/>
<path d="M140.421 211.706H96.4757L87.3936 236.608L72.8917 235.29L75.089 192.809H233.585L235.636 235.29L221.28 236.608L212.052 211.706H168.253V371.667L190.665 376.647L187.735 391.003H120.939L118.009 376.647L140.421 371.667V211.706Z" fill="#1A1B41" stroke="#1A1B41" stroke-width="12" paint-order="stroke fill"/>
</svg>
